<svg width="20" height="20" viewBox="0 0 20 20" fill="none" xmlns="http://www.w3.org/2000/svg">
<path d="M8.93751 10.5625H0.812511C0.581761 10.5625 0.388928 10.4845 0.234011 10.3285C0.0790946 10.1725 0.00109446 9.97914 1.11301e-05 9.74839C-0.0010722 9.51764 0.0769279 9.3248 0.234011 9.16989C0.391095 9.01497 0.583928 8.93751 0.812511 8.93751H8.93751V0.812511C8.93751 0.581761 9.01551 0.388928 9.17151 0.234011C9.32751 0.0790946 9.52089 0.00109446 9.75164 1.11301e-05C9.98239 -0.0010722 10.1752 0.0769279 10.3301 0.234011C10.4851 0.391095 10.5625 0.583928 10.5625 0.812511V8.93751H18.6875C18.9183 8.93751 19.1111 9.01551 19.266 9.17151C19.4209 9.32751 19.4989 9.52089 19.5 9.75164C19.5011 9.98239 19.4231 10.1752 19.266 10.3301C19.1089 10.4851 18.9161 10.5625 18.6875 10.5625H10.5625V18.6875C10.5625 18.9183 10.4845 19.1111 10.3285 19.266C10.1725 19.4209 9.97914 19.4989 9.74839 19.5C9.51764 19.5011 9.3248 19.4231 9.16989 19.266C9.01497 19.1089 8.93751 18.9161 8.93751 18.6875V10.5625Z" fill="#E8E6E3"/>
</svg>
