<svg width="26" height="22" viewBox="0 0 26 22" fill="none" xmlns="http://www.w3.org/2000/svg">
<path d="M13 5.75C13.8929 2.29594 17.2651 0.532272 24.6071 0.500006C24.7245 0.499572 24.8408 0.521909 24.9493 0.565728C25.0579 0.609547 25.1565 0.673983 25.2395 0.75532C25.3225 0.836658 25.3882 0.93329 25.4329 1.03965C25.4776 1.146 25.5004 1.25998 25.5 1.37501V17.125C25.5 17.3571 25.4059 17.5796 25.2385 17.7437C25.071 17.9078 24.8439 18 24.6071 18C17.4643 18 14.7048 19.4115 13 21.5M13 5.75C12.1071 2.29594 8.73494 0.532272 1.39286 0.500006C1.27549 0.499572 1.15918 0.521909 1.05066 0.565728C0.942132 0.609547 0.843529 0.673983 0.760531 0.75532C0.677533 0.836658 0.611783 0.93329 0.567069 1.03965C0.522356 1.146 0.499564 1.25998 0.500006 1.37501V17.0195C0.500006 17.5598 0.841524 18 1.39286 18C8.53572 18 11.3052 19.4219 13 21.5M13 5.75V21.5" stroke="#7C9A92" stroke-linecap="round" stroke-linejoin="round"/>
</svg>
