<svg width="19" height="19" viewBox="0 0 19 19" fill="none" xmlns="http://www.w3.org/2000/svg">
<path fill-rule="evenodd" clip-rule="evenodd" d="M16.9852 4.28766C17.0605 4.40183 17.094 4.53845 17.0801 4.67446C17.0663 4.81047 17.0059 4.93754 16.9092 5.0342L9.63146 12.3112C9.557 12.3856 9.46411 12.4389 9.36229 12.4656L6.331 13.2572C6.2308 13.2834 6.1255 13.2829 6.02557 13.2557C5.92563 13.2286 5.83453 13.1758 5.76131 13.1026C5.68808 13.0293 5.63528 12.9382 5.60815 12.8383C5.58101 12.7384 5.58049 12.6331 5.60662 12.5329L6.39829 9.50237C6.42196 9.41162 6.4655 9.32725 6.52575 9.25537L13.8305 1.95541C13.9418 1.84422 14.0927 1.78177 14.25 1.78177C14.4074 1.78177 14.5583 1.84422 14.6696 1.95541L16.9092 4.19425C16.9369 4.22341 16.9623 4.25464 16.9852 4.28766ZM15.6497 4.61383L14.25 3.21495L7.50662 9.95837L7.01183 11.8528L8.90629 11.358L15.6497 4.61383Z" fill="#E8E6E3"/>
<path d="M15.5492 13.585C15.7656 11.7356 15.8347 9.87198 15.7558 8.01167C15.754 7.96782 15.7613 7.92407 15.7772 7.88318C15.7931 7.8423 15.8174 7.80517 15.8485 7.77417L16.6275 6.99517C16.6488 6.97376 16.6758 6.95895 16.7053 6.95253C16.7348 6.94611 16.7655 6.94834 16.7938 6.95896C16.822 6.96958 16.8466 6.98813 16.8646 7.01239C16.8825 7.03665 16.8931 7.06558 16.8951 7.09571C17.0413 9.30545 16.9856 11.5239 16.7288 13.7235C16.542 15.3243 15.2563 16.5791 13.6627 16.7572C10.8961 17.0634 8.10412 17.0634 5.33751 16.7572C3.74468 16.5791 2.45822 15.3243 2.27138 13.7235C1.94372 10.9174 1.94372 8.08262 2.27138 5.27646C2.45822 3.67571 3.74388 2.42092 5.33751 2.24279C7.43736 2.01087 9.5529 1.95447 11.6621 2.07417C11.6923 2.07633 11.7213 2.08711 11.7455 2.10521C11.7698 2.12331 11.7883 2.14799 11.799 2.17631C11.8096 2.20463 11.812 2.23542 11.8057 2.26502C11.7994 2.29462 11.7847 2.3218 11.7635 2.34333L10.9773 3.12867C10.9466 3.15942 10.9099 3.18351 10.8694 3.19945C10.829 3.21539 10.7857 3.22282 10.7422 3.22129C8.98215 3.16101 7.22002 3.22847 5.46972 3.42317C4.95825 3.47978 4.48081 3.70716 4.11451 4.06857C3.7482 4.42999 3.51444 4.90434 3.45097 5.415C3.1334 8.12908 3.1334 10.8709 3.45097 13.585C3.51444 14.0957 3.7482 14.57 4.11451 14.9314C4.48081 15.2928 4.95825 15.5202 5.46972 15.5768C8.12576 15.8737 10.8744 15.8737 13.5313 15.5768C14.0427 15.5202 14.5202 15.2928 14.8865 14.9314C15.2528 14.57 15.4857 14.0957 15.5492 13.585Z" fill="#E8E6E3"/>
</svg>
