<svg width="30" height="30" viewBox="0 0 30 30" fill="none" xmlns="http://www.w3.org/2000/svg">
<path d="M4.73684 0H25.2632C26.5194 0 27.7243 0.499059 28.6126 1.38739C29.5009 2.27572 30 3.48055 30 4.73684V25.2632C30 26.5194 29.5009 27.7243 28.6126 28.6126C27.7243 29.5009 26.5194 30 25.2632 30H4.73684C3.48055 30 2.27572 29.5009 1.38739 28.6126C0.499059 27.7243 0 26.5194 0 25.2632V4.73684C0 3.48055 0.499059 2.27572 1.38739 1.38739C2.27572 0.499059 3.48055 0 4.73684 0ZM4.73684 1.57895C3.89932 1.57895 3.09609 1.91165 2.50387 2.50387C1.91165 3.09609 1.57895 3.89932 1.57895 4.73684V23.0368L8.35263 16.2474L12.3 20.1947L20.1947 12.3L28.4211 20.5263V4.73684C28.4211 3.89932 28.0883 3.09609 27.4961 2.50387C26.9039 1.91165 26.1007 1.57895 25.2632 1.57895H4.73684ZM12.3 22.4368L8.35263 18.4895L1.57895 25.2632C1.57895 26.1007 1.91165 26.9039 2.50387 27.4961C3.09609 28.0883 3.89932 28.4211 4.73684 28.4211H25.2632C26.1007 28.4211 26.9039 28.0883 27.4961 27.4961C28.0883 26.9039 28.4211 26.1007 28.4211 25.2632V22.7526L20.1947 14.5421L12.3 22.4368ZM8.68421 4.73684C9.73112 4.73684 10.7351 5.15272 11.4754 5.893C12.2157 6.63328 12.6316 7.6373 12.6316 8.68421C12.6316 9.73112 12.2157 10.7351 11.4754 11.4754C10.7351 12.2157 9.73112 12.6316 8.68421 12.6316C7.6373 12.6316 6.63328 12.2157 5.893 11.4754C5.15272 10.7351 4.73684 9.73112 4.73684 8.68421C4.73684 7.6373 5.15272 6.63328 5.893 5.893C6.63328 5.15272 7.6373 4.73684 8.68421 4.73684ZM8.68421 6.31579C8.05607 6.31579 7.45365 6.56532 7.00948 7.00948C6.56532 7.45365 6.31579 8.05607 6.31579 8.68421C6.31579 9.31236 6.56532 9.91477 7.00948 10.3589C7.45365 10.8031 8.05607 11.0526 8.68421 11.0526C9.31236 11.0526 9.91477 10.8031 10.3589 10.3589C10.8031 9.91477 11.0526 9.31236 11.0526 8.68421C11.0526 8.05607 10.8031 7.45365 10.3589 7.00948C9.91477 6.56532 9.31236 6.31579 8.68421 6.31579Z" fill="#7C9A92"/>
</svg>
