<svg width="24" height="19" viewBox="0 0 24 19" fill="none" xmlns="http://www.w3.org/2000/svg">
<path d="M3.66433 0.75H2.5C1.5335 0.75 0.75 1.5335 0.75 2.5V16.5C0.75 17.4665 1.5335 18.25 2.5 18.25H3.66433C4.63083 18.25 5.41433 17.4665 5.41433 16.5V2.5C5.41433 1.5335 4.63083 0.75 3.66433 0.75Z" stroke="#E8E6E3" stroke-width="1.5" stroke-linecap="round" stroke-linejoin="round"/>
<path d="M11.1905 0.75H10.0261C9.05962 0.75 8.27612 1.5335 8.27612 2.5V16.5C8.27612 17.4665 9.05962 18.25 10.0261 18.25H11.1905C12.157 18.25 12.9405 17.4665 12.9405 16.5V2.5C12.9405 1.5335 12.157 0.75 11.1905 0.75Z" stroke="#E8E6E3" stroke-width="1.5" stroke-linecap="round" stroke-linejoin="round"/>
<path d="M15.3532 5.2697C15.1607 4.5522 15.5865 3.81486 16.3028 3.62353L17.5138 3.2992C18.2302 3.1067 18.9663 3.53253 19.1588 4.24886L22.2867 15.9319C22.3325 16.1022 22.3443 16.28 22.3214 16.4549C22.2984 16.6298 22.2412 16.7985 22.153 16.9513C22.0648 17.1041 21.9473 17.238 21.8073 17.3454C21.6673 17.4527 21.5075 17.5314 21.337 17.5769L20.126 17.9024C19.9555 17.9482 19.7777 17.9599 19.6027 17.9369C19.4277 17.9139 19.259 17.8566 19.1062 17.7683C18.9534 17.68 18.8195 17.5624 18.7122 17.4222C18.6049 17.2821 18.5263 17.1221 18.481 16.9515L15.3532 5.2697Z" stroke="#E8E6E3" stroke-width="1.5" stroke-linecap="round" stroke-linejoin="round"/>
</svg>
