<svg width="39" height="48" viewBox="0 0 39 48" fill="none" xmlns="http://www.w3.org/2000/svg">
<path d="M9.15036 46.75H29.3496C31.5776 46.75 33.7142 45.8331 35.2896 44.201C36.865 42.569 37.75 40.3554 37.75 38.0473V24.297C37.7508 21.9892 36.8668 19.7756 35.2923 18.143L20.9661 3.29865C20.186 2.49055 19.2599 1.84955 18.2406 1.41225C17.2214 0.97495 16.129 0.749918 15.0258 0.75H9.15036C6.92245 0.75 4.78578 1.66689 3.21041 3.29896C1.63504 4.93104 0.75 7.1446 0.75 9.4527V38.0473C0.75 40.3554 1.63504 42.569 3.21041 44.201C4.78578 45.8331 6.92245 46.75 9.15036 46.75Z" stroke="#E8E6E3" stroke-width="1.5" stroke-linecap="round" stroke-linejoin="round"/>
<path d="M18.5012 1.64508V15.7186C18.5012 17.0375 19.007 18.3024 19.9072 19.235C20.8074 20.1676 22.0283 20.6916 23.3014 20.6916H36.8908" stroke="#E8E6E3" stroke-width="1.5" stroke-linecap="round" stroke-linejoin="round"/>
<path d="M7.84961 34.9392V32.4527M7.84961 32.4527V27.4797H10.2497C10.8863 27.4797 11.4967 27.7417 11.9468 28.208C12.3969 28.6743 12.6498 29.3068 12.6498 29.9662C12.6498 30.6257 12.3969 31.2581 11.9468 31.7244C11.4967 32.1907 10.8863 32.4527 10.2497 32.4527H7.84961ZM27.0504 34.9392V31.8311M27.0504 31.8311V27.4797H30.6506M27.0504 31.8311H30.6506M17.45 34.9392V27.4797H18.6501C19.6049 27.4797 20.5206 27.8727 21.1958 28.5721C21.8709 29.2716 22.2502 30.2203 22.2502 31.2095C22.2502 32.1987 21.8709 33.1473 21.1958 33.8468C20.5206 34.5462 19.6049 34.9392 18.6501 34.9392H17.45Z" stroke="#E8E6E3" stroke-linecap="round" stroke-linejoin="round"/>
</svg>
