<svg width="21" height="21" viewBox="0 0 21 21" fill="none" xmlns="http://www.w3.org/2000/svg">
<path d="M0.75 17.0834C0.75 15.8457 1.24167 14.6587 2.11683 13.7835C2.992 12.9084 4.17899 12.4167 5.41667 12.4167H14.75C15.9877 12.4167 17.1747 12.9084 18.0498 13.7835C18.925 14.6587 19.4167 15.8457 19.4167 17.0834C19.4167 17.7022 19.1708 18.2957 18.7332 18.7333C18.2957 19.1709 17.7022 19.4167 17.0833 19.4167H3.08333C2.46449 19.4167 1.871 19.1709 1.43342 18.7333C0.995833 18.2957 0.75 17.7022 0.75 17.0834Z" stroke="#E8E6E3" stroke-width="1.5" stroke-linejoin="round"/>
<path d="M10.0833 7.75C12.0162 7.75 13.5833 6.183 13.5833 4.25C13.5833 2.317 12.0162 0.75 10.0833 0.75C8.15026 0.75 6.58325 2.317 6.58325 4.25C6.58325 6.183 8.15026 7.75 10.0833 7.75Z" stroke="#E8E6E3" stroke-width="1.5"/>
</svg>
