<svg width="21" height="20" viewBox="0 0 21 20" fill="none" xmlns="http://www.w3.org/2000/svg">
<path d="M7.00161 12.25C7.7777 12.2498 8.53184 12.5076 9.14545 12.9827C9.75907 13.4579 10.1973 14.1236 10.3914 14.875H20.1266C20.3453 14.8746 20.5562 14.9561 20.7177 15.1034C20.8793 15.2507 20.9799 15.4532 20.9996 15.6709C21.0194 15.8887 20.9569 16.106 20.8245 16.28C20.692 16.4539 20.4993 16.572 20.2841 16.611L20.1266 16.625L10.3914 16.6267C10.198 17.3788 9.76 18.0453 9.14633 18.5211C8.53265 18.997 7.77816 19.2552 7.00161 19.2552C6.22507 19.2552 5.47057 18.997 4.8569 18.5211C4.24323 18.0453 3.80523 17.3788 3.61186 16.6267L0.876613 16.625C0.657957 16.6254 0.447075 16.5439 0.285492 16.3966C0.12391 16.2493 0.0233375 16.0468 0.0035809 15.8291C-0.0161757 15.6113 0.0463151 15.394 0.178747 15.22C0.311179 15.0461 0.503955 14.928 0.719113 14.889L0.876613 14.875H3.61186C3.80589 14.1236 4.24416 13.4579 4.85777 12.9827C5.47138 12.5076 6.22553 12.2498 7.00161 12.25ZM7.00161 14C6.53748 14 6.09237 14.1844 5.76418 14.5126C5.43599 14.8408 5.25161 15.2859 5.25161 15.75C5.25161 16.2141 5.43599 16.6592 5.76418 16.9874C6.09237 17.3156 6.53748 17.5 7.00161 17.5C7.46574 17.5 7.91086 17.3156 8.23905 16.9874C8.56724 16.6592 8.75161 16.2141 8.75161 15.75C8.75161 15.2859 8.56724 14.8408 8.23905 14.5126C7.91086 14.1844 7.46574 14 7.00161 14ZM14.0016 1.13123e-07C14.7777 -0.000197134 15.5318 0.257558 16.1455 0.732735C16.7591 1.20791 17.1973 1.87356 17.3914 2.625H20.1266C20.3453 2.6246 20.5562 2.70608 20.7177 2.85339C20.8793 3.0007 20.9799 3.20318 20.9996 3.42094C21.0194 3.6387 20.9569 3.85597 20.8245 4.02995C20.692 4.20394 20.4993 4.32204 20.2841 4.361L20.1266 4.375L17.3914 4.37675C17.198 5.12883 16.76 5.79525 16.1463 6.2711C15.5327 6.74695 14.7782 7.0052 14.0016 7.0052C13.2251 7.0052 12.4706 6.74695 11.8569 6.2711C11.2432 5.79525 10.8052 5.12883 10.6119 4.37675L0.876613 4.375C0.657957 4.3754 0.447075 4.29392 0.285492 4.14661C0.12391 3.9993 0.0233375 3.79682 0.0035809 3.57906C-0.0161757 3.3613 0.0463151 3.14403 0.178747 2.97004C0.311179 2.79606 0.503955 2.67796 0.719113 2.639L0.876613 2.625H10.6119C10.8059 1.87356 11.2442 1.20791 11.8578 0.732735C12.4714 0.257558 13.2255 -0.000197134 14.0016 1.13123e-07ZM14.0016 1.75C13.5375 1.75 13.0924 1.93437 12.7642 2.26256C12.436 2.59075 12.2516 3.03587 12.2516 3.5C12.2516 3.96413 12.436 4.40925 12.7642 4.73744C13.0924 5.06562 13.5375 5.25 14.0016 5.25C14.4657 5.25 14.9109 5.06562 15.239 4.73744C15.5672 4.40925 15.7516 3.96413 15.7516 3.5C15.7516 3.03587 15.5672 2.59075 15.239 2.26256C14.9109 1.93437 14.4657 1.75 14.0016 1.75Z" fill="#E8E6E3"/>
</svg>
